#!OML:ASF H:\Male1\Project 1\Capture day 1\Session 1\Male1.ASF
:FULLY-SPECIFIED
:DEGREES
293
root 42.068 15.2323 0.81324 932.821 89.2025 935.601
lowerback 3.45541 1.77003 -0.0959745
upperback 4.75872 2.49952 -1.00056
thorax 2.99901 1.3156 -0.990743
lowerneck -11.3547 3.26373 6.69946
upperneck 17.5486 3.80983 -2.24118
head 7.44069 2.1297 -1.45518
rclavicle 1.3418e-015 8.74653e-015
rhumerus -36.2325 7.57223 -90.4101
rradius 39.3716
rwrist -19.2694
rhand -17.2296 -0.186994
rfingers 7.12502
rthumb 9.0138 -29.9744
lclavicle 1.3418e-015 8.74653e-015
lhumerus -39.739 2.42085 77.5907
lradius 25.2937
lwrist -6.00833
lhand -16.5448 14.7515
lfingers 7.12502
lthumb 9.67456 44.5094
rfemur 4.25706 6.66535 29.8667
rtibia 23.1515
rfoot -27.5892 -19.5595
rtoes -18.8417
lfemur -21.3203 -16.8759 -19.8357
ltibia 31.4097
lfoot -17.1642 19.4146
ltoes -1.04365
294
root 42.2081 15.2653 0.791653 933.438 89.6143 936.202
lowerback 3.33495 1.8046 -0.477796
upperback 4.68636 2.54331 -1.17893
thorax 2.98428 1.32751 -0.958339
lowerneck -11.2731 3.33195 6.72875
upperneck 17.5269 3.86587 -2.03327
head 7.41921 2.17796 -1.38724
rclavicle 2.68359e-014 4.37326e-015
rhumerus -36.3086 7.42252 -90.5787
rradius 39.1123
rwrist -18.9562
rhand -17.054 -0.388514
rfingers 7.12502
rthumb 9.18327 -30.1686
lclavicle 2.68359e-014 4.37326e-015
lhumerus -39.2166 1.9267 78.1588
lradius 25.5432
lwrist -5.6445
lhand -16.8296 14.784
lfingers 7.12502
lthumb 9.39981 44.5544
rfemur 4.02616 6.86859 29.5356
rtibia 23.9388
rfoot -26.8214 -20.5049
rtoes -21.4556
lfemur -20.633 -16.9335 -20.2536
ltibia 31.252
lfoot -16.4493 20.2455
ltoes -1.21798
295
root 42.3705 15.2519 0.766632 863.135 89.4495 866.073
lowerback 2.85929 1.67337 -1.20727
upperback 4.86109 2.38683 -1.40701
thorax 3.4123 1.23126 -0.765117
lowerneck -11.3103 3.39809 6.77727
upperneck 17.4632 3.91916 -1.91613
head 7.40682 2.2149 -1.35106
rclavicle 3.67752e-015 -1.03368e-014
rhumerus -36.2114 7.2363 -90.6988
rradius 38.8432
rwrist -18.6945
rhand -17.023 -0.680242
rfingers 7.12502
rthumb 9.21313 -30.459
lclavicle 3.67752e-015 -1.03368e-014
lhumerus -38.4587 1.54379 78.7563
lradius 25.7299
lwrist -5.35322
lhand -17.2111 14.7675
lfingers 7.12502
lthumb 9.03168 44.5542
rfemur 4.35534 5.60477 28.6509
rtibia 25.0137
rfoot -27.0323 -19.6874
rtoes -22.6912
lfemur -19.7871 -16.9082 -21.2573
ltibia 31.1858
lfoot -16.0722 20.2947
ltoes -0.642339
296
root 42.495 15.2557 0.73712 833.651 89.469 837.03
lowerback 3.30127 1.67536 -1.43976
upperback 4.92171 2.39148 -1.58413
thorax 3.2263 1.2341 -0.831289
lowerneck -11.1485 3.45648 7.07901
upperneck 17.2716 3.96486 -1.9929
head 7.32663 2.24699 -1.42383
rclavicle 2.22639e-014 -7.55382e-015
rhumerus -36.1745 6.84805 -90.7952
rradius 38.5538
rwrist -18.4373
rhand -17.1037 -0.643875
rfingers 7.12502
rthumb 9.13524 -30.426
lclavicle 2.22639e-014 -7.55382e-015
lhumerus -37.6115 1.16047 79.3012
lradius 25.7697
lwrist -5.38405
lhand -17.5496 14.7598
lfingers 7.12502
lthumb 8.70499 44.5603
rfemur 4.37552 5.0627 28.3088
rtibia 26.6036
rfoot -26.9213 -19.3786
rtoes -24.308
lfemur -18.6332 -16.5457 -21.8475
ltibia 30.8801
lfoot -15.686 20.0347
ltoes 0.307235
297
root 42.6028 15.2623 0.706054 798.273 90.1312 801.521
lowerback 3.28794 1.63393 -1.01229
upperback 4.82576 2.32938 -1.48376
thorax 3.14518 1.21279 -0.967688
lowerneck -11.1767 3.5251 7.07785
upperneck 17.2922 4.02689 -1.82828
head 7.33861 2.29135 -1.36296
rclavicle 6.36111e-015 -1.15295e-014
rhumerus -36.0686 6.61253 -90.7986
rradius 38.2215
rwrist -18.3092
rhand -17.1963 -0.427343
rfingers 7.12502
rthumb 9.04594 -30.2134
lclavicle 6.36111e-015 -1.15295e-014
lhumerus -36.5188 1.2344 79.7688
lradius 25.6881
lwrist -6.35919
lhand -16.9382 15.3804
lfingers 7.12502
lthumb 9.29499 45.1555
rfemur 3.48135 4.49947 28.6979
rtibia 28.4791
rfoot -26.4093 -18.9504
rtoes -25.427
lfemur -18.4063 -15.4533 -21.4026
ltibia 30.9188
lfoot -15.1998 19.0989
ltoes 0.507666
298
root 42.7532 15.2654 0.668245 885.971 89.736 889.509
lowerback 2.9833 1.47731 -1.23534
upperback 5.01116 2.1399 -1.59812
thorax 3.50425 1.11455 -0.947644
lowerneck -11.224 3.56087 6.9865
upperneck 17.4151 4.03965 -1.53708
head 7.38054 2.32043 -1.25014
rclavicle 6.65929e-015 -1.51076e-014
rhumerus -36.0238 6.36279 -90.7852
rradius 37.936
rwrist -18.301
rhand -17.3137 -0.182384
rfingers 7.12502
rthumb 8.93264 -29.9733
lclavicle 6.65929e-015 -1.51076e-014
lhumerus -35.3074 1.23858 80.3384
lradius 25.4572
lwrist -6.86408
lhand -16.8918 15.5429
lfingers 7.12502
lthumb 9.33979 45.3159
rfemur 3.01594 2.75894 27.8529
rtibia 30.8934
rfoot -25.8138 -17.7859
rtoes -27.4707
lfemur -17.4034 -15.0144 -22.1151
ltibia 30.9421
lfoot -15.2645 18.5223
ltoes 1.46218
299
root 42.8459 15.2808 0.631026 841.139 90.3634 844.787
lowerback 3.40971 1.54334 -0.947349
upperback 4.91982 2.21537 -1.54946
thorax 3.17858 1.16158 -1.07316
lowerneck -10.9363 3.55584 7.1821
upperneck 17.2226 4.06551 -1.79956
head 7.27748 2.32059 -1.37065
rclavicle 1.66979e-014 1.11319e-014
rhumerus -36.0947 6.59701 -91.0165
rradius 37.6226
rwrist -19.5993
rhand -18.3639 0.977099
rfingers 7.12502
rthumb 7.91916 -28.8546
lclavicle 1.66979e-014 1.11319e-014
lhumerus -34.1211 1.15939 81.0393
lradius 25.3187
lwrist -7.03388
lhand -17.1577 15.5719
lfingers 7.12502
lthumb 9.08314 45.3563
rfemur 1.58052 1.95757 27.7204
rtibia 33.7846
rfoot -24.3096 -17.0043
rtoes -29.6384
lfemur -16.9145 -14.3742 -21.9167
ltibia 30.9915
lfoot -15.3573 18.4014
ltoes 3.15964
